<?xml version="1.0" encoding="UTF-8" standalone="no"?>
<!DOCTYPE svg PUBLIC "-//W3C//DTD SVG 1.0//EN" "http://www.w3.org/TR/2001/REC-SVG-20010904/DTD/svg10.dtd">
<!-- Created with Inkscape (http://www.inkscape.org/) -->
<svg
   xmlns:svg="http://www.w3.org/2000/svg"
   xmlns="http://www.w3.org/2000/svg"
   version="1.0"
   width="800"
   height="400"
   id="svg2"
   xml:space="preserve"><defs
     id="defs5" /><g
     transform="matrix(1.25,0,0,-1.25,0,616.25)"
     id="g11"><g
       id="g13" /><path
       d="M 582.78874,389.49659 C 585.25486,384.2561 586.48791,378.70734 586.17965,372.54205 C 584.94659,314.28008 462.56562,246.46191 313.67392,221.49249 C 176.18799,198.37266 63.054949,219.95117 47.949993,269.58174 C 68.295444,223.03381 178.6541,203.30489 312.13259,225.80819 C 461.0243,250.77761 583.40527,318.59578 584.63833,376.85775 C 584.63833,381.17345 584.0218,385.48916 582.78874,389.49659 z"
       id="path25"
       style="fill:#000000;fill-opacity:1;fill-rule:evenodd;stroke:none" /><path
       d="M 317.06483,437.58584 C 465.64826,462.55526 585.87138,435.11973 584.63833,376.85775 C 583.40527,318.59578 461.0243,250.77761 312.13259,225.80819 C 163.54884,200.83877 43.326027,227.96604 44.559084,286.53628 C 45.792142,344.79825 168.17281,412.61642 317.06483,437.58584 z"
       id="path27"
       style="fill:#f7d524;fill-opacity:1;fill-rule:evenodd;stroke:none" /><path
       d="M 275.14087,434.19493 L 256.02816,399.66932 L 254.79541,401.82717 L 272.98271,434.19493 L 275.14087,434.19493 z"
       id="path29"
       style="fill:#000000;fill-opacity:1;fill-rule:evenodd;stroke:none" /><path
       d="M 274.21607,436.04452 L 254.79541,401.82717 L 238.14914,436.04452 L 274.21607,436.04452 z"
       id="path31"
       style="fill:#2eb8ca;fill-opacity:1;fill-rule:evenodd;stroke:none" /><path
       d="M 239.69046,386.41395 L 262.81029,386.41395 L 247.0888,265.5743 L 255.41194,265.5743 L 254.79541,259.40901 L 223.35244,259.40901 L 223.96897,265.5743 L 232.29211,265.5743 L 247.39707,380.24866 L 238.76566,380.24866 L 239.69046,386.41395 z M 451.15984,305.03214 C 448.07719,289.92719 443.45323,278.5214 437.5962,269.89 C 431.12265,260.64207 423.10777,256.0181 413.85984,256.0181 C 403.68712,256.0181 395.98051,262.49166 390.74001,275.43876 C 385.49952,288.38587 384.26646,304.72388 387.04084,324.76107 C 389.50695,344.48999 395.05571,360.828 403.37885,373.46684 C 412.01026,386.41395 421.25819,392.57924 431.43091,392.57924 C 440.98711,392.57924 447.76893,387.95527 452.08463,378.39907 C 456.09207,368.84288 457.01686,355.58751 454.85901,338.63297 L 454.24248,334.93379 L 404.61191,334.93379 C 404.61191,334.009 404.30365,332.15941 403.99538,329.6933 C 403.68712,327.22718 403.37885,325.3776 403.07059,323.83627 C 400.60447,303.79909 400.29621,288.69413 402.76232,278.5214 C 404.92017,268.34868 409.8524,263.10818 416.94249,263.10818 C 423.7243,263.10818 429.88959,267.42389 435.43835,275.74702 C 440.37058,282.83711 444.06975,292.70157 446.53587,305.03214 C 447.1524,309.96437 452.08463,309.34785 451.15984,305.03214 z M 406.15323,341.40734 L 438.82926,341.09908 C 439.13752,342.94867 439.44579,344.79825 439.75405,346.33958 C 439.75405,347.8809 440.06232,349.42222 440.37058,350.96354 C 441.9119,363.29412 441.9119,372.23379 440.37058,378.39907 C 438.521,384.2561 435.43835,387.33874 430.50612,387.33874 C 424.95736,387.33874 420.02513,383.33131 416.01769,375.31643 C 411.70199,367.30156 408.31108,355.89577 406.15323,341.40734 z M 227.66815,305.03214 C 224.89377,289.92719 220.2698,278.5214 214.41247,269.89 C 207.63096,260.64207 199.92435,256.0181 190.67642,256.0181 C 180.50338,256.0181 172.79677,262.49166 167.55659,275.43876 C 162.31609,288.38587 161.08303,304.72388 163.85741,324.76107 C 166.32353,344.48999 171.87229,360.828 180.19543,373.46684 C 188.82683,386.41395 198.07476,392.57924 208.24718,392.57924 C 217.80368,392.57924 224.5855,387.95527 228.59294,378.39907 C 232.90833,368.84288 233.83343,355.58751 231.36701,338.63297 L 231.05905,334.93379 L 181.42848,334.93379 C 181.42848,334.009 181.12022,332.15941 180.81195,329.6933 C 180.50338,327.22718 180.19543,325.3776 179.88716,323.83627 C 177.42074,303.79909 177.11278,288.69413 179.5789,278.5214 C 181.73675,268.34868 186.66867,263.10818 193.75906,263.10818 C 200.54057,263.10818 206.70586,267.42389 212.25493,275.74702 C 217.18716,282.83711 220.88633,292.70157 223.35244,305.03214 C 223.96897,309.96437 228.59294,309.34785 227.66815,305.03214 z M 182.96981,341.40734 L 215.64583,341.09908 C 215.95379,342.94867 216.26236,344.79825 216.57063,346.33958 C 216.57063,347.8809 216.87889,349.42222 217.18716,350.96354 C 218.72848,363.29412 218.72848,372.23379 217.18716,378.39907 C 215.33757,384.2561 212.25493,387.33874 207.32269,387.33874 C 201.77394,387.33874 196.8417,383.33131 192.526,375.31643 C 188.51857,367.30156 185.12735,355.89577 182.96981,341.40734 z M 85.866516,321.06189 C 85.866516,320.75363 85.866516,320.1371 85.866516,319.52057 C 88.024367,278.82967 94.806184,258.79248 106.52023,259.40901 C 114.22684,260.02554 121.00866,264.03298 127.17395,271.73959 C 133.03097,279.4462 136.73014,289.00239 138.27147,300.09991 C 139.19626,307.80652 138.57973,313.97181 136.42188,319.21231 C 133.95576,324.14454 128.09874,330.00156 119.15907,336.78338 C 105.28717,346.33958 96.65577,354.66271 93.573126,361.7528 C 90.490482,368.53461 89.257424,377.47428 90.798746,387.95527 C 92.648333,402.13543 97.580563,413.54122 105.9037,422.78915 C 114.22684,432.03708 124.39957,436.96931 136.11362,437.58584 C 140.73758,437.89411 145.36155,437.27758 149.67725,435.73626 C 154.30122,434.19493 158.61692,431.72882 162.93262,428.64617 C 160.77477,412.61642 158.61692,396.27841 156.76733,380.24866 C 156.45907,376.24122 153.37642,376.54949 153.37642,379.9404 C 153.06816,381.17345 153.06816,383.02304 152.75989,385.18089 C 150.91031,417.24039 144.43675,432.65361 133.33924,432.03708 C 125.94089,431.72882 119.15907,428.33791 113.61031,422.48089 C 108.06155,416.3156 104.67065,408.91725 103.74585,399.97758 C 101.89627,386.41395 109.29461,374.08337 125.94089,362.36933 C 126.55742,362.06106 127.17395,361.7528 127.48221,361.44453 C 140.12105,352.50486 148.13593,344.79825 151.21857,337.70817 C 154.30122,330.61809 155.22601,321.67842 153.99295,310.5809 C 151.8351,295.16768 146.28634,281.91231 137.03841,271.12306 C 127.48221,260.02554 117.00122,254.16852 104.67065,253.55199 C 98.197092,253.24372 92.031804,254.16852 86.791309,256.9429 C 81.550814,259.40901 77.851641,263.10818 75.69379,267.73215 C 77.851641,285.30322 80.317756,303.18256 82.475607,321.06189 C 82.783872,323.83627 85.866516,323.83627 85.866516,321.06189 z M 531.30858,382.71478 C 525.1433,382.71478 520.21106,377.78255 516.20363,367.60982 C 512.19619,357.74536 508.80528,342.33214 506.0309,321.06189 C 503.56479,301.64124 503.25652,286.84454 504.79784,277.59661 C 506.33917,268.04041 510.03834,263.41645 515.89536,263.41645 C 521.44412,263.41645 526.37635,268.04041 530.38379,277.90488 C 534.39123,287.46107 537.47387,302.25776 540.24825,322.29495 C 542.71437,343.87346 543.63916,359.28668 542.09784,368.53461 C 540.55652,378.09081 537.16561,382.71478 531.30858,382.71478 z M 544.25569,426.48832 L 544.87222,432.65361 L 568.30031,432.65361 L 547.03007,265.88256 L 555.66147,265.88256 L 554.73668,259.40901 L 532.84991,259.40901 L 536.24081,285.30322 C 533.46643,275.43876 530.07553,268.04041 526.06809,263.10818 C 522.06065,258.48422 517.43668,256.0181 512.19619,256.0181 C 503.25652,256.0181 496.78297,261.87513 492.46727,274.2057 C 488.45983,286.53628 487.8433,302.25776 490.30942,321.98669 C 492.77553,341.40734 497.70776,357.43709 505.10611,370.3842 C 512.81272,383.33131 520.82759,389.80486 529.76726,389.80486 C 534.69949,389.80486 538.39866,387.64701 540.86478,383.63957 C 543.63916,379.63213 545.18048,373.46684 545.79701,365.1437 L 553.50362,426.48832 L 544.25569,426.48832 z M 469.6557,432.65361 L 492.46727,432.65361 L 471.19702,265.5743 L 479.82843,265.5743 L 479.2119,259.40901 L 447.46066,259.40901 L 448.38546,265.5743 L 456.40033,265.5743 L 477.05405,426.48832 L 468.73091,426.48832 L 469.6557,432.65361 z M 378.40943,259.40901 L 340.18465,259.40901 L 340.80118,265.88256 L 350.66564,265.88256 L 366.38712,382.09825 L 358.68051,382.09825 L 359.60531,388.26354 L 367.31192,388.26354 L 368.23671,395.66188 C 370.39456,409.84204 373.78547,420.6313 378.40943,428.02965 C 383.34167,435.11973 389.50695,438.8189 397.21356,438.8189 C 399.67968,438.8189 402.45406,438.51064 404.61191,437.58584 C 407.07802,436.66105 409.54414,435.42799 411.70199,433.5784 C 410.46893,423.09741 408.92761,412.61642 407.69455,402.13543 C 407.38629,398.43626 402.76232,398.74453 402.45406,402.13543 C 401.52927,416.00733 400.29621,424.63874 399.37141,428.02965 C 398.44662,431.72882 397.21356,433.5784 395.36398,433.5784 C 393.20613,433.5784 391.35654,431.72882 390.12348,428.33791 C 388.58216,424.947 387.3491,417.54865 385.80778,406.14287 L 383.34167,388.26354 L 401.83753,388.26354 L 400.91274,382.09825 L 382.41687,382.09825 L 366.69539,265.88256 L 379.33423,265.88256 L 378.40943,259.40901 z M 260.65213,259.40901 L 261.57723,265.5743 L 269.90006,265.5743 L 285.31328,380.24866 L 276.68219,380.24866 L 277.60667,386.41395 L 299.80202,386.41395 L 297.02764,365.1437 C 299.49375,372.54205 303.19293,378.70734 307.81689,383.33131 C 312.44086,387.64701 317.37309,390.11312 322.61358,390.11312 C 330.62845,390.11312 335.86895,386.72221 338.33506,380.24866 C 340.80118,373.46684 340.80118,360.21147 338.0268,340.48255 L 328.16234,265.5743 L 336.48547,265.5743 L 335.56068,259.40901 L 304.42598,259.40901 L 305.04251,265.5743 L 313.67392,265.5743 L 324.1549,342.6404 C 326.31275,359.90321 326.92928,371.00073 326.00448,375.62469 C 324.77143,380.55693 321.99705,382.71478 317.68105,382.71478 C 312.44086,382.71478 307.50863,378.39907 303.19293,370.07594 C 298.87723,361.44453 295.79458,350.03875 293.63673,335.55032 L 284.3888,265.5743 L 292.71194,265.5743 L 292.09541,259.40901 L 260.65213,259.40901 z"
       id="path33"
       style="fill:#000000;fill-opacity:1;fill-rule:evenodd;stroke:none" /><path
       d="M 238.14914,388.5718 L 261.26897,388.5718 L 245.54748,267.73215 L 253.87062,267.73215 L 253.25409,261.56686 L 221.81112,261.56686 L 222.42765,267.73215 L 230.75079,267.73215 L 245.54748,382.40651 L 237.22434,382.40651 L 238.14914,388.5718 z M 449.31025,307.19 C 446.53587,292.08504 441.9119,280.37099 436.05488,272.04785 C 429.27306,262.79992 421.56645,258.17595 412.31852,258.17595 C 402.14579,258.17595 394.43918,264.64951 389.19869,277.59661 C 383.95819,290.54372 382.72514,306.88173 385.19125,326.91892 C 387.96563,346.64784 393.51439,362.98585 401.83753,375.62469 C 410.46893,388.5718 419.71687,394.73709 429.88959,394.73709 C 439.44579,394.73709 446.22761,390.11312 450.23504,380.55693 C 454.55074,371.00073 455.47554,357.74536 453.00942,340.79082 L 452.70116,337.09164 L 403.07059,337.09164 C 403.07059,336.16685 402.76232,334.31726 402.45406,331.85115 C 402.14579,329.38503 401.83753,327.53545 401.52927,325.99412 C 399.06315,305.95694 398.75489,290.85198 401.221,280.67926 C 403.37885,270.50653 408.31108,265.26603 415.40116,265.26603 C 422.18298,265.26603 428.34827,269.58174 433.89703,277.59661 C 438.82926,284.99496 442.52843,294.85942 444.99455,307.19 C 445.61108,312.12223 450.23504,311.5057 449.31025,307.19 z M 404.61191,343.5652 L 437.28794,343.25693 C 437.5962,345.10652 437.90447,346.9561 438.21273,348.49743 C 438.21273,350.03875 438.521,351.58007 438.82926,353.12139 C 440.37058,365.45197 440.37058,374.39164 438.82926,380.55693 C 436.97967,386.41395 433.89703,389.49659 428.9648,389.49659 C 423.41604,389.49659 418.48381,385.48916 414.16811,377.47428 C 410.16067,369.45941 406.76976,358.05362 404.61191,343.5652 z M 226.12682,307.19 C 223.04418,292.08504 218.72848,280.37099 212.87115,272.04785 C 206.08964,262.79992 198.38303,258.17595 189.13509,258.17595 C 178.6541,258.17595 170.94749,264.64951 166.01526,277.59661 C 160.77477,290.54372 159.54171,306.88173 162.00752,326.91892 C 164.78221,346.64784 170.33096,362.98585 178.6541,375.62469 C 187.28551,388.5718 196.53344,394.73709 206.70586,394.73709 C 216.26236,394.73709 223.04418,390.11312 227.05162,380.55693 C 231.05905,371.00073 232.29211,357.74536 229.82569,340.79082 L 229.51773,337.09164 L 179.88716,337.09164 C 179.88716,336.16685 179.5789,334.31726 179.27063,331.85115 C 178.6541,329.38503 178.6541,327.53545 178.34584,325.99412 C 175.57146,305.95694 175.57146,290.85198 178.03758,280.67926 C 180.19543,270.50653 184.81939,265.26603 192.21774,265.26603 C 198.99925,265.26603 205.16454,269.58174 210.7136,277.59661 C 215.33757,284.99496 219.03643,294.85942 221.81112,307.19 C 222.42765,312.12223 227.05162,311.5057 226.12682,307.19 z M 181.42848,343.5652 L 214.10451,343.25693 C 214.41247,345.10652 214.72104,346.9561 214.72104,348.49743 C 215.0293,350.03875 215.33757,351.58007 215.33757,353.12139 C 217.18716,365.45197 217.18716,374.39164 215.33757,380.55693 C 213.79625,386.41395 210.7136,389.49659 205.78137,389.49659 C 200.23261,389.49659 195.30038,385.48916 190.98468,377.47428 C 186.66867,369.45941 183.58603,358.05362 181.42848,343.5652 z M 84.325194,323.21974 C 84.325194,322.91148 84.325194,322.29495 84.325194,321.67842 C 86.483045,280.98752 93.264862,260.95033 104.67065,261.56686 C 112.68552,261.87513 119.46734,266.19083 125.63263,273.89744 C 131.48965,281.60405 135.18882,291.16025 136.73014,302.25776 C 137.65494,309.96437 137.03841,316.12966 134.57229,321.37016 C 132.41444,326.30239 126.55742,332.15941 117.30949,338.63297 C 103.74585,348.49743 95.114448,356.82057 92.031804,363.91065 C 88.640895,370.69246 87.716102,379.63213 89.257424,390.11312 C 91.107011,404.29329 96.039241,415.69907 104.36238,424.947 C 112.68552,434.19493 122.85825,439.12716 134.57229,439.74369 C 139.19626,439.74369 143.82023,439.12716 148.13593,437.89411 C 152.75989,436.35278 157.0756,433.88667 161.3913,430.80402 C 159.23345,414.46601 157.0756,398.43626 155.22601,382.09825 C 154.91774,378.39907 151.8351,378.70734 151.52684,382.09825 C 151.52684,383.33131 151.52684,385.18089 151.21857,387.33874 C 149.36898,419.08998 142.89543,434.81146 131.48965,434.19493 C 124.0913,433.88667 117.61775,430.49576 112.06899,424.33047 C 106.52023,418.47345 103.12932,411.0751 101.89627,402.13543 C 100.35494,388.5718 107.75329,376.24122 124.0913,364.52718 C 125.0161,364.21891 125.63263,363.60238 125.94089,363.60238 C 138.57973,354.66271 146.59461,346.9561 149.67725,339.86602 C 152.75989,332.77594 153.68469,323.52801 152.45163,312.73875 C 150.29378,297.32553 144.74502,284.07016 135.18882,272.97265 C 125.94089,262.18339 115.15164,256.32637 103.12932,255.70984 C 96.347506,255.40157 90.490482,256.32637 85.249987,259.10075 C 80.009492,261.56686 76.310319,265.26603 74.152468,269.58174 C 76.310319,287.46107 78.46817,305.34041 80.934285,323.21974 C 81.24255,325.99412 84.016929,325.99412 84.325194,323.21974 z M 529.459,384.87263 C 523.60197,384.87263 518.66974,379.9404 514.66231,369.76767 C 510.65487,359.90321 507.26396,344.18172 504.48958,323.21974 C 502.02346,303.49082 501.40694,289.00239 503.25652,279.4462 C 504.79784,270.19827 508.49702,265.26603 514.35404,265.26603 C 519.9028,265.26603 524.83503,270.19827 528.84247,280.06273 C 532.84991,289.61892 535.93255,304.41562 538.39866,324.4528 C 541.17304,346.03131 541.78957,361.44453 540.55652,370.69246 C 539.01519,380.24866 535.31602,384.87263 529.459,384.87263 z M 542.4061,428.64617 L 543.3309,434.81146 L 566.45073,434.81146 L 545.48875,268.04041 L 554.12015,268.04041 L 553.19536,261.56686 L 531.30858,261.56686 L 534.69949,287.46107 C 531.92511,277.28835 528.5342,270.19827 524.52677,265.26603 C 520.51933,260.3338 515.89536,258.17595 510.65487,258.17595 C 501.7152,258.17595 495.24165,264.03298 490.92595,276.36355 C 486.91851,288.38587 485.99371,304.41562 488.45983,324.14454 C 491.23421,343.5652 496.16644,359.59495 503.56479,372.54205 C 511.2714,385.48916 519.28627,391.96271 528.22594,391.96271 C 532.84991,391.96271 536.54908,389.80486 539.32346,385.79742 C 542.09784,381.78998 543.63916,375.62469 544.25569,367.30156 L 551.9623,428.64617 L 542.4061,428.64617 z M 468.11438,434.81146 L 490.92595,434.81146 L 469.6557,267.73215 L 478.2871,267.73215 L 477.67058,261.56686 L 445.91934,261.56686 L 446.84413,267.73215 L 454.85901,267.73215 L 475.51272,428.64617 L 467.18959,428.64617 L 468.11438,434.81146 z M 376.86811,261.56686 L 338.33506,261.56686 L 339.25985,268.04041 L 349.12432,268.04041 L 364.8458,384.2561 L 357.13919,384.2561 L 358.06398,390.42139 L 365.77059,390.42139 L 366.69539,397.81973 C 368.85324,411.9999 372.24415,422.78915 376.86811,430.1875 C 381.80034,437.27758 387.96563,440.97675 395.67224,440.97675 C 398.13836,440.97675 400.60447,440.66849 403.07059,439.74369 C 405.5367,438.8189 408.00282,437.58584 410.16067,435.73626 C 408.92761,425.25527 407.38629,414.77428 405.84497,404.29329 C 405.5367,400.59411 401.221,400.90238 400.91274,404.29329 C 399.67968,417.85692 398.75489,426.79659 397.83009,430.1875 C 396.9053,433.88667 395.67224,435.73626 393.82266,435.73626 C 391.6648,435.73626 389.81522,433.88667 388.58216,430.49576 C 387.04084,427.10485 385.80778,419.70651 384.26646,408.30072 L 381.80034,390.42139 L 400.29621,390.42139 L 399.37141,384.2561 L 380.87555,384.2561 L 364.8458,268.04041 L 377.48464,268.04041 L 376.86811,261.56686 z M 259.11081,261.56686 L 260.03591,267.73215 L 268.35874,267.73215 L 283.77196,382.40651 L 275.14087,382.40651 L 276.06535,388.5718 L 298.2607,388.5718 L 295.48632,367.30156 C 297.95243,374.6999 301.6516,380.86519 306.27557,385.18089 C 310.89954,389.80486 315.83177,392.27097 321.07225,392.27097 C 329.08713,392.27097 334.32762,388.88006 336.79374,382.40651 C 339.25985,375.62469 338.95159,362.36933 336.48547,342.6404 L 326.62101,267.73215 L 334.94415,267.73215 L 334.01936,261.56686 L 302.88466,261.56686 L 303.50119,267.73215 L 312.13259,267.73215 L 322.61358,344.79825 C 324.77143,362.06106 325.38796,373.15858 324.46316,377.78255 C 323.2301,382.71478 320.45572,384.87263 316.13972,384.87263 C 310.89954,384.87263 305.96731,380.55693 301.6516,372.23379 C 297.3359,363.60238 293.94499,352.1966 292.09541,337.39991 L 282.84748,267.73215 L 291.17061,267.73215 L 290.55409,261.56686 L 259.11081,261.56686 z"
       id="path35"
       style="fill:#ec1d2f;fill-opacity:1;fill-rule:evenodd;stroke:none" /></g></svg>
